<svg xmlns="http://www.w3.org/2000/svg" viewBox="0 0 500 500">
  <path fill="#005BA9" d="M250 0c138.071 0 250 111.929 250 250S388.071 500 250 500 0 388.071 0 250 111.929 0 250 0z"/>
  <path fill="#FFD700" d="M250 50c110.457 0 200 89.543 200 200S360.457 450 250 450 50 360.457 50 250 139.543 50 250 50z"/>
  <path fill="#005BA9" d="M250 100c82.843 0 150 67.157 150 150s-67.157 150-150 150S100 332.843 100 250 167.157 100 250 100z"/>
  <path fill="#FFFFFF" d="M150 200h200v100H150z"/>
  <path fill="#005BA9" d="M200 225h100v50H200z"/>
</svg>